# xmcd
#
# Track frame offsets: 
#        163
#        19803
#        31681
#        48243
#        62716
#        77707
#        90502
#        109182
#        119670
#        124289
#        134817
#        139536
#        152173
#        169650
#        174217
#        189325
#        201117
#        219417
#        233936
#
# Disc length: 3750 seconds
#
# Revision: 2
# Processed by: cddbd v1.5.2PL0 Copyright (c) Steve Scherf et al.
# Submitted via: ExactAudioCopy v0.99pb4
#
DISCID=040ea413
DTITLE=Future Of The Left - Last Night I Saved Her From Vampires
DYEAR=2008
DGENRE=Rock
TTITLE0=The Best Laid Plans
TTITLE1=Wrigley Scott
TTITLE2=Plagues Of Onces
TTITLE3=Fingers Become Thumbs
TTITLE4=Drink Nike
TTITLE5=Distant Jabs At A Soul
TTITLE6=Manchasm
TTITLE7=V.D.F.A.
TTITLE8=Dancing Etiquette
TTITLE9=Fuck The Countryside Alliance
TTITLE10=Olympic Ideals
TTITLE11=Small Bones Small Bodies
TTITLE12=The Lord Hates A Coward
TTITLE13=London Shoes
TTITLE14=My Gymnastic Past
TTITLE15=Encores Explained
TTITLE16=adeadenemyalwayssmellsgood
TTITLE17=Auf Wiedersehen Goodbye
TTITLE18=Cloak The Dagger
EXTD=YEAR: 2008
EXTT0=
EXTT1=
EXTT2=
EXTT3=
EXTT4=
EXTT5=
EXTT6=
EXTT7=
EXTT8=
EXTT9=
EXTT10=
EXTT11=
EXTT12=
EXTT13=
EXTT14=
EXTT15=
EXTT16=
EXTT17=
EXTT18=
PLAYORDER=
